#!OML:ASF E:\emotionWalksFemale\Project 1\Capture day 1\Session 1\Female1.ASF
:FULLY-SPECIFIED
:DEGREES
405
root 10.8274 15.7348 -22.9852 -0.662385 -2.1648 2.94354
lowerback 6.7026 2.68444 -1.52716
upperback -4.48486 3.33476 -1.4069
thorax -8.49814 1.66923 -1.09625
lowerneck -10.2334 -3.78629 -7.1613
upperneck 16.1914 -4.94625 5.66716
head 6.94861 -2.34742 2.56021
rclavicle -4.39935e-014 2.3556e-014
rhumerus -43.4032 17.0137 -94.4144
rradius 34.2965
rwrist 14.5482
rhand -2.43968 -52.6878
rfingers 7.12502
rthumb 23.2516 -81.304
lclavicle -4.39935e-014 2.3556e-014
lhumerus -49.8248 6.38082 75.0412
lradius 36.7442
lwrist -9.48391
lhand -4.91864 -25.9519
lfingers 7.12502
lthumb 20.8716 2.94536
rfemur -1.61049 -1.95177 18.0195
rtibia 58.6011
rfoot 13.5576 -11.7475
rtoes 8.72983
lfemur -7.0979 -20.2981 -28.4857
ltibia 14.4616
lfoot -11.7203 23.5699
ltoes -13.5246
406
root 10.8432 15.736 -22.889 -0.553125 -2.09393 3.13979
lowerback 6.86946 2.56756 -1.78716
upperback -4.50085 3.14251 -1.4465
thorax -8.62678 1.58839 -0.975829
lowerneck -10.3262 -3.71142 -7.13869
upperneck 16.1431 -4.86178 5.79304
head 6.94573 -2.29341 2.60436
rclavicle -8.65956e-015 3.97569e-015
rhumerus -43.3094 16.5205 -93.9955
rradius 33.6388
rwrist 15.4334
rhand -2.18443 -52.6659
rfingers 7.12502
rthumb 23.4965 -81.2509
lclavicle -8.65956e-015 3.97569e-015
lhumerus -49.0752 6.00041 75.2527
lradius 36.3538
lwrist -9.5844
lhand -5.6805 -29.513
lfingers 7.12502
lthumb 20.1395 -0.536939
rfemur -3.36717 -2.39512 17.7166
rtibia 60.752
rfoot 13.0952 -12.59
rtoes 8.15845
lfemur -6.4825 -20.3852 -28.8766
ltibia 13.8305
lfoot -11.9237 23.5363
ltoes -14.4375
407
root 10.859 15.7318 -22.7926 -0.454927 -2.04136 3.26518
lowerback 7.01017 2.41885 -1.99621
upperback -4.44669 2.92096 -1.3964
thorax -8.66424 1.49375 -0.77958
lowerneck -10.6593 -3.63774 -7.15712
upperneck 16.1434 -4.72858 5.75829
head 6.99493 -2.22777 2.60461
rclavicle 2.53699e-014 2.78299e-015
rhumerus -43.1017 16.3312 -93.5495
rradius 32.9539
rwrist 15.7383
rhand -2.11326 -52.7709
rfingers 7.12502
rthumb 23.5648 -81.3472
lclavicle 2.53699e-014 2.78299e-015
lhumerus -48.2573 5.87248 75.5106
lradius 35.9728
lwrist -9.97053
lhand -6.27719 -31.5149
lfingers 7.12502
lthumb 19.5659 -2.4794
rfemur -5.04521 -2.87979 17.4877
rtibia 62.713
rfoot 11.935 -12.9361
rtoes 6.9766
lfemur -5.99608 -20.6127 -29.2085
ltibia 13.4874
lfoot -12.0463 23.7434
ltoes -15.5904
408
root 10.8745 15.729 -22.6889 -0.437682 -2.06377 3.26311
lowerback 7.03384 2.35961 -2.03099
upperback -4.31032 2.84009 -1.38509
thorax -8.53188 1.4563 -0.732538
lowerneck -11.0744 -3.5883 -6.91181
upperneck 16.2595 -4.65387 5.60141
head 7.09066 -2.18323 2.51535
rclavicle -1.45486e-014 -6.16232e-015
rhumerus -42.8525 15.7923 -93.0238
rradius 32.3469
rwrist 16.3213
rhand -2.46882 -52.8036
rfingers 7.12502
rthumb 23.2237 -81.4233
lclavicle -1.45486e-014 -6.16232e-015
lhumerus -47.2175 5.58568 75.7329
lradius 35.5054
lwrist -10.5198
lhand -6.52116 -31.9796
lfingers 7.12502
lthumb 19.3313 -2.92045
rfemur -6.53893 -3.21253 17.4373
rtibia 64.4323
rfoot 10.2348 -13.1734
rtoes 6.5332
lfemur -5.44057 -20.9428 -29.4649
ltibia 13.3426
lfoot -12.5183 24.1792
ltoes -15.6537
409
root 10.8879 15.7295 -22.5849 -0.478969 -2.02158 3.2342
lowerback 7.04968 2.24736 -2.08827
upperback -4.40643 2.68852 -1.2895
thorax -8.65193 1.38924 -0.581815
lowerneck -10.2729 -3.44117 -6.88182
upperneck 16.0379 -4.47881 5.48092
head 6.86302 -2.12056 2.49782
rclavicle 1.93318e-014 -8.54774e-015
rhumerus -43.3113 15.2775 -92.598
rradius 31.8681
rwrist 17.0271
rhand -2.76588 -52.6575
rfingers 7.12502
rthumb 22.9386 -81.3129
lclavicle 1.93318e-014 -8.54774e-015
lhumerus -46.8213 5.42794 75.8233
lradius 35.0727
lwrist -11.2513
lhand -6.67584 -32.8038
lfingers 7.12502
lthumb 19.1826 -3.72982
rfemur -7.95799 -3.45002 17.4992
rtibia 65.8963
rfoot 8.77628 -13.3296
rtoes 5.49002
lfemur -4.88799 -21.2454 -29.6938
ltibia 13.3197
lfoot -13.2192 24.5018
ltoes -15.494
410
root 10.9 15.731 -22.4785 -0.491483 -1.70061 3.28207
lowerback 7.10133 2.07607 -2.18592
upperback -4.41432 2.44677 -1.28173
thorax -8.69317 1.27742 -0.486167
lowerneck -9.77546 -3.34928 -6.94381
upperneck 15.7567 -4.39498 5.66037
head 6.68499 -2.07719 2.57946
rclavicle -1.02809e-014 -1.03865e-014
rhumerus -43.4652 14.4822 -92.0918
rradius 31.2723
rwrist 17.6592
rhand -2.47084 -52.6586
rfingers 7.12502
rthumb 23.2217 -81.2785
lclavicle -1.02809e-014 -1.03865e-014
lhumerus -46.2009 5.0723 75.9805
lradius 34.7769
lwrist -12.045
lhand -7.04503 -33.4948
lfingers 7.12502
lthumb 18.8275 -4.38598
rfemur -9.31489 -3.86538 17.5095
rtibia 67.1213
rfoot 7.71068 -13.3893
rtoes 4.41599
lfemur -4.39104 -21.4944 -29.9916
ltibia 13.3446
lfoot -13.6618 24.4421
ltoes -16.0212
411
root 10.91 15.7293 -22.3733 -0.476676 -1.29848 3.30554
lowerback 7.08658 1.88262 -2.29021
upperback -4.34519 2.1797 -1.25408
thorax -8.61143 1.15391 -0.356722
lowerneck -9.66913 -3.26692 -7.02503
upperneck 15.711 -4.31045 5.87393
head 6.65198 -2.02576 2.6711
rclavicle 1.26725e-015 9.44227e-015
rhumerus -43.3446 13.6779 -91.4821
rradius 30.6092
rwrist 17.7078
rhand -1.94991 -53.0526
rfingers 7.12502
rthumb 23.7214 -81.6086
lclavicle 1.26725e-015 9.44227e-015
lhumerus -45.3445 4.7747 76.2084
lradius 34.4668
lwrist -12.9616
lhand -7.21012 -33.8119
lfingers 7.12502
lthumb 18.6687 -4.6877
rfemur -10.6173 -4.30281 17.5597
rtibia 68.1183
rfoot 5.86421 -13.2938
rtoes 1.67261
lfemur -3.90893 -21.5965 -30.2449
ltibia 13.3292
lfoot -14.025 24.2298
ltoes -17.2804
412
root 10.9186 15.7244 -22.2753 -0.580184 -1.0816 3.24789
lowerback 7.27637 1.74861 -2.34318
upperback -4.25433 1.99427 -1.19204
thorax -8.6256 1.06797 -0.238469
lowerneck -9.90033 -3.2409 -6.78778
upperneck 15.9941 -4.26502 5.6102
head 6.76935 -2.00736 2.5491
rclavicle -1.55891e-014 -1.73937e-015
rhumerus -43.1866 12.8447 -90.7844
rradius 30.0237
rwrist 17.9413
rhand -2.21035 -52.9437
rfingers 7.12502
rthumb 23.4716 -81.5319
lclavicle -1.55891e-014 -1.73937e-015
lhumerus -44.4916 4.46421 76.4489
lradius 34.1886
lwrist -13.8107
lhand -7.02787 -33.3474
lfingers 7.12502
lthumb 18.844 -4.24016
rfemur -11.8399 -4.52688 17.724
rtibia 68.922
rfoot 3.42733 -13.2034
rtoes -2.65617
lfemur -3.37429 -21.7006 -30.4406
ltibia 13.3777
lfoot -14.4856 24.3732
ltoes -18.5234
413
root 10.9277 15.7221 -22.1737 -0.752253 -0.85883 3.21805
lowerback 7.52081 1.60988 -2.34818
upperback -4.21188 1.80035 -1.18833
thorax -8.71984 0.973664 -0.209683
lowerneck -9.71438 -3.17689 -6.58295
upperneck 16.0554 -4.20051 5.46676
head 6.74452 -1.97874 2.47718
rclavicle -1.47784e-014 -3.62782e-015
rhumerus -43.2972 12.0052 -90.2553
rradius 29.6568
rwrist 18.8166
rhand -2.89525 -52.4435
rfingers 7.12502
rthumb 22.8145 -81.1143
lclavicle -1.47784e-014 -3.62782e-015
lhumerus -43.7806 4.06793 76.5763
lradius 33.8974
lwrist -14.4377
lhand -6.72033 -32.54
lfingers 7.12502
lthumb 19.1398 -3.46177
rfemur -12.8998 -4.74676 17.8745
rtibia 69.5104
rfoot 1.37121 -13.535
rtoes -6.2364
lfemur -2.81054 -21.8999 -30.7119
ltibia 13.5904
lfoot -14.9794 24.5672
ltoes -18.9328
